#!OML:ASF I:\golf\golf\golf 2\Subject 1\2002-09-07\Subject1.ASF
:FULLY-SPECIFIED
:DEGREES
309
root -6.50362 17.8408 2.80557 3.59223 43.5528 -11.9348
lowerback 3.50771 -9.75271 -11.1115
upperback -0.689008 -13.4171 -2.83991
thorax -0.847452 -6.56005 3.39133
lowerneck -7.34246 20.7072 1.71276
upperneck 14.0102 30.8532 -14.8236
head 8.21634 13.687 -1.60911
rclavicle -6.35117e-014 1.59028e-014
rhumerus 19.892 -30.7266 -41.0086
rradius 114.103
rwrist 5.19163
rhand -63.5186 70.7299
rfingers 7.12502
rthumb -35.4947 44.2909
lclavicle -6.35117e-014 1.59028e-014
lhumerus 116.513 -40.1203 41.5019
lradius 43.7821
lwrist -14.6405
lhand -39.6618 1.01663
lfingers 7.12502
lthumb -192.642 -149.386
rfemur -32.1855 18.8194 22.3944
rtibia 29.8125
rfoot -7.33576 19.1064
rtoes 20.1384
lfemur -1.6899 14.7771 4.53127
ltibia 26.1319
lfoot -2.73128 23.2696
ltoes -27.0144
310
root -6.50536 17.8397 2.79346 3.4952 43.6409 -12.1063
lowerback 3.58915 -9.75372 -11.0542
upperback -0.720838 -13.4313 -2.82029
thorax -0.931993 -6.5626 3.40242
lowerneck -7.12256 20.7265 1.8063
upperneck 13.9273 30.8474 -14.8406
head 8.16747 13.7085 -1.65099
rclavicle 1.07046e-013 3.18055e-014
rhumerus 19.6362 -30.5525 -40.9396
rradius 113.984
rwrist 4.66281
rhand -63.4924 70.7848
rfingers 7.12502
rthumb -35.4699 44.3398
lclavicle 1.07046e-013 3.18055e-014
lhumerus 116.403 -40.2357 41.5608
lradius 43.6017
lwrist -14.492
lhand -39.431 0.762204
lfingers 7.12502
lthumb -192.419 -149.627
rfemur -32.2129 18.8731 22.4367
rtibia 29.7124
rfoot -7.20357 18.9826
rtoes 20.2436
lfemur -1.85989 14.9711 4.63881
ltibia 26.2711
lfoot -3.29688 23.1852
ltoes -25.3729
311
root -6.50565 17.8417 2.77772 3.5297 43.7741 -12.0558
lowerback 3.70498 -9.75789 -11.1468
upperback -0.711471 -13.4553 -2.8258
thorax -0.963906 -6.57149 3.4621
lowerneck -7.0103 20.7362 1.91725
upperneck 13.874 30.8556 -14.9373
head 8.16511 13.7204 -1.69877
rclavicle -9.00495e-014 -9.54166e-015
rhumerus 19.5142 -30.4235 -40.9517
rradius 113.799
rwrist 4.1813
rhand -63.5789 70.5303
rfingers 7.12502
rthumb -35.5519 44.105
lclavicle -9.00495e-014 -9.54166e-015
lhumerus 116.392 -40.2789 41.565
lradius 43.39
lwrist -14.3281
lhand -39.0547 0.551461
lfingers 7.12502
lthumb -192.056 -149.816
rfemur -32.2209 18.8336 22.3006
rtibia 29.6066
rfoot -7.0023 18.8926
rtoes 20.752
lfemur -2.04807 15.1353 4.54891
ltibia 26.4058
lfoot -3.53321 23.0812
ltoes -24.4616
312
root -6.50328 17.8478 2.76214 3.62146 43.9255 -11.8624
lowerback 3.79434 -9.76541 -11.3146
upperback -0.612197 -13.4738 -2.86293
thorax -0.87801 -6.58542 3.51057
lowerneck -7.1763 20.7553 1.87787
upperneck 13.8906 30.8931 -14.9335
head 8.19549 13.7242 -1.66895
rclavicle -3.42904e-014 3.18055e-015
rhumerus 19.5406 -30.4045 -41.0836
rradius 113.597
rwrist 3.67088
rhand -63.8506 69.8429
rfingers 7.12502
rthumb -35.8094 43.4798
lclavicle -3.42904e-014 3.18055e-015
lhumerus 116.357 -40.3699 41.6178
lradius 43.2426
lwrist -14.3007
lhand -38.5408 0.344097
lfingers 7.12502
lthumb -191.561 -149.995
rfemur -32.1406 18.7288 22.0774
rtibia 29.473
rfoot -6.90053 18.8678
rtoes 20.7574
lfemur -2.23148 15.4097 4.35236
ltibia 26.5729
lfoot -2.84521 22.8843
ltoes -26.2937
313
root -6.50214 17.8548 2.74516 3.56724 44.0859 -11.9561
lowerback 3.80216 -9.77614 -11.2992
upperback -0.498378 -13.4776 -2.82956
thorax -0.756829 -6.59805 3.52344
lowerneck -7.36206 20.7765 1.78292
upperneck 13.9414 30.9343 -14.8728
head 8.22262 13.7281 -1.61569
rclavicle 2.40529e-013 -1.90833e-014
rhumerus 19.6011 -30.4262 -41.2983
rradius 113.467
rwrist 3.07515
rhand -64.0664 69.2614
rfingers 7.12502
rthumb -36.0138 42.9483
lclavicle 2.40529e-013 -1.90833e-014
lhumerus 116.322 -40.4313 41.6278
lradius 43.1546
lwrist -14.2399
lhand -38.0274 0.415327
lfingers 7.12502
lthumb -191.066 -149.896
rfemur -32.1093 18.6382 22.071
rtibia 29.3231
rfoot -6.8182 18.805
rtoes 20.598
lfemur -2.48463 15.7772 4.38032
ltibia 26.7528
lfoot -2.09588 22.6102
ltoes -28.1767
314
root -6.50183 17.8586 2.72327 3.38449 44.2645 -12.2903
lowerback 3.86719 -9.79755 -11.1393
upperback -0.461282 -13.507 -2.69906
thorax -0.753181 -6.61785 3.58255
lowerneck -7.34188 20.7748 1.73871
upperneck 13.9763 30.9508 -14.9077
head 8.23251 13.7294 -1.61937
rclavicle 8.42847e-014 6.36111e-015
rhumerus 19.6526 -30.3366 -41.5271
rradius 113.335
rwrist 2.58038
rhand -64.1417 68.6182
rfingers 7.12502
rthumb -36.0851 42.3227
lclavicle 8.42847e-014 6.36111e-015
lhumerus 116.286 -40.355 41.5579
lradius 43.0262
lwrist -13.9187
lhand -37.596 0.452085
lfingers 7.12502
lthumb -190.65 -149.838
rfemur -32.1406 18.5095 22.2391
rtibia 29.1769
rfoot -6.63135 18.7371
rtoes 20.9497
lfemur -2.78008 16.081 4.56807
ltibia 26.9323
lfoot -2.37826 22.4791
ltoes -26.9881
315
root -6.50029 17.8614 2.70152 3.33142 44.3997 -12.4131
lowerback 3.97322 -9.80829 -11.1122
upperback -0.452961 -13.5349 -2.61236
thorax -0.784031 -6.63178 3.67381
lowerneck -7.33377 20.7956 1.57175
upperneck 14.0122 30.9722 -14.7741
head 8.19627 13.7425 -1.568
rclavicle -1.05356e-014 -5.08889e-014
rhumerus 19.7801 -30.2395 -41.8414
rradius 113.149
rwrist 1.83938
rhand -63.9399 67.3922
rfingers 7.12502
rthumb -35.894 41.0497
lclavicle -1.05356e-014 -5.08889e-014
lhumerus 116.183 -40.3089 41.5492
lradius 42.7828
lwrist -13.7321
lhand -37.25 0.171394
lfingers 7.12502
lthumb -190.316 -150.102
rfemur -32.1584 18.3525 22.254
rtibia 29.0369
rfoot -6.39695 18.7646
rtoes 21.4016
lfemur -3.0288 16.3369 4.57561
ltibia 27.1304
lfoot -3.11733 22.3949
ltoes -24.8877
316
root -6.49777 17.8662 2.68045 3.37258 44.5051 -12.4337
lowerback 3.97033 -9.8015 -11.1371
upperback -0.397881 -13.5211 -2.57378
thorax -0.711237 -6.63078 3.71686
lowerneck -7.33262 20.8337 1.37587
upperneck 13.9393 30.9932 -14.638
head 8.11945 13.7639 -1.51832
rclavicle -1.2921e-014 -9.54166e-015
rhumerus 19.974 -30.2624 -42.2974
rradius 113.022
rwrist 0.698798
rhand -63.5802 66.9313
rfingers 7.12502
rthumb -35.5531 40.5062
lclavicle -1.2921e-014 -9.54166e-015
lhumerus 116.096 -40.357 41.6041
lradius 42.5239
lwrist -13.7242
lhand -36.6388 0.174833
lfingers 7.12502
lthumb -189.726 -150.07
rfemur -32.2056 18.1415 22.2021
rtibia 28.9038
rfoot -6.18169 18.8831
rtoes 21.6389
lfemur -3.24082 16.6536 4.50247
ltibia 27.3203
lfoot -2.58138 22.0312
ltoes -27.3852
